<svg xmlns="http://www.w3.org/2000/svg" viewBox="0 0 1002.6695 1002.6695">
  <title>Logomark</title>
  <g>
    <polyline points="720.498 629.452 720.498 392.385 786.011 355.179 786.011 668.34 513.968 825.002 513.968 747.953" fill="#de754c"/>
    <polygon points="248.955 344.035 376.362 419.047 376.419 419.014 248.955 344.035" fill="#c6c6c6"/>
    <path d="M230.9267,333.4207l18.0283,10.614,127.4642,74.9794,93.8359,55.189a32.6355,32.6355,0,0,0-1.86,10.8737,33.01,33.01,0,1,0,6.9108-20.1477L386.757,412.8423,501.35,344.4163l124.9874,74.63,145.4355-85.6258L501.35,177.6636,241.4351,327.3626ZM480.4955,485.0768a21.1053,21.1053,0,0,1,.5035-4.5557,20.8623,20.8623,0,1,1-.5035,4.5557Z" fill="#d9d9d6"/>
    <path d="M122.1973,374.5932a20.9656,20.9656,0,1,1,5.2216-9.1684A20.9637,20.9637,0,0,1,122.1973,374.5932Z" fill="none"/>
    <path d="M153.5111,453.2839a21.0362,21.0362,0,1,1,5.1973-9.1847A20.9877,20.9877,0,0,1,153.5111,453.2839Z" fill="none"/>
    <polygon points="488.697 825.006 291.955 711.704 216.658 668.339 216.658 592.673 488.697 748.041 488.697 825.006" fill="#9e2a2b"/>
    <path d="M488.6937,648.3192V538.4824l-12.1063-6.8354-17.554-9.9085-1.0711-.6053-12.1063-6.8354v13.8943l12.1063,6.8447,18.6251,10.5139v95.8829L367.2182,579.23V440.6885l-65.9246-37.4451-9.3389-5.3029-75.2963-42.7641v.0162L103.3326,290.8434a33.3543,33.3543,0,1,0-5.2135,9.1683l118.5393,67.33v.0326l75.2963,42.7641v12.1487l-75.2963-42.7641v36.5761l-78.4306-44.5345a33.3169,33.3169,0,1,0-5.23,9.1683l83.6605,47.5149v.0325l75.2963,42.7642v12.1487l-75.2963-42.7642v36.5762l-47.1331-26.7662a33.307,33.307,0,1,0-5.2135,9.1765l52.3466,29.7384v.0325L291.9547,531.95v12.1487l-75.2963-42.7642v68.1907l.1-.1753,271.939,155.2785V648.3214ZM92.5157,284.704a21.028,21.028,0,1,1,.7066-5.4085A21.0389,21.0389,0,0,1,92.5157,284.704Zm34.9033,80.7208a21.0253,21.0253,0,1,1,.7226-5.4653A21.0118,21.0118,0,0,1,127.419,365.4248Zm31.2893,78.6744a21.0075,21.0075,0,1,1,.7149-5.4165A21.0213,21.0213,0,0,1,158.7083,444.0992Z" fill="#9e2a2b"/>
    <polygon points="635.453 440.685 635.453 579.226 526.074 641.435 526.074 545.551 544.634 535.065 544.699 535.037 556.74 528.229 556.74 441.548 544.932 434.872 544.932 434.857 544.905 434.857 544.699 434.741 544.699 434.763 526.242 424.343 514.136 417.508 514.136 431.374 526.242 438.21 544.699 448.638 544.699 521.133 544.634 521.161 526.074 531.647 513.968 538.482 513.968 678.562 513.968 678.562 513.968 725.364 700.966 618.137 700.966 403.478 635.453 440.685" fill="#de754c"/>
  </g>
</svg>
